<svg width="21" height="21" viewBox="0 0 21 21" fill="none" xmlns="http://www.w3.org/2000/svg">
<path d="M6.99902 11.375V3.9375C6.99902 3.5894 7.1373 3.25556 7.38345 3.00942C7.62959 2.76328 7.96343 2.625 8.31152 2.625C8.65962 2.625 8.99346 2.76328 9.2396 3.00942C9.48574 3.25556 9.62402 3.5894 9.62402 3.9375V10.5M9.62402 10.0625V8.3125C9.62402 7.9644 9.7623 7.63056 10.0084 7.38442C10.2546 7.13828 10.5884 7 10.9365 7C11.2846 7 11.6185 7.13828 11.8646 7.38442C12.1107 7.63056 12.249 7.9644 12.249 8.3125V10.5M12.249 9.1875C12.249 8.8394 12.3873 8.50556 12.6334 8.25942C12.8796 8.01328 13.2134 7.875 13.5615 7.875C13.9096 7.875 14.2435 8.01328 14.4896 8.25942C14.7357 8.50556 14.874 8.8394 14.874 9.1875V10.5" stroke="#008269" stroke-opacity="0.68" stroke-width="1.5" stroke-linecap="round" stroke-linejoin="round"/>
<path d="M14.8748 10.0621C14.8748 9.71404 15.0131 9.3802 15.2592 9.13406C15.5053 8.88792 15.8392 8.74964 16.1873 8.74964C16.5354 8.74964 16.8692 8.88792 17.1153 9.13406C17.3615 9.3802 17.4998 9.71404 17.4998 10.0621V13.9996C17.4998 15.392 16.9466 16.7274 15.9621 17.712C14.9775 18.6965 13.6422 19.2496 12.2498 19.2496H10.4998H10.6818C9.81231 19.2498 8.95643 19.034 8.19098 18.6216C7.42553 18.2093 6.77447 17.6133 6.29627 16.8871L6.12477 16.6246C5.85177 16.2055 4.89364 14.5351 3.24952 11.6126C3.08191 11.3147 3.03714 10.9632 3.12473 10.6328C3.21232 10.3024 3.42535 10.0192 3.71852 9.84339C4.03079 9.65602 4.39671 9.57837 4.75816 9.62275C5.11961 9.66714 5.45587 9.83103 5.71352 10.0884L6.99977 11.3746M2.22314 4.89439C2.89464 4.40349 3.61615 3.98495 4.37564 3.64577M12.2498 3.02539C13.3892 3.33116 14.4762 3.80665 15.4741 4.43589" stroke="#008269" stroke-opacity="0.68" stroke-width="1.5" stroke-linecap="round" stroke-linejoin="round"/>
</svg>
