<svg width="28" height="28" viewBox="0 0 28 28" fill="none" xmlns="http://www.w3.org/2000/svg">
<circle cx="13.6893" cy="13.6842" r="13.6842" fill="#008269"/>
<path fill-rule="evenodd" clip-rule="evenodd" d="M19.4952 7.87835C19.6272 8.01033 19.7013 8.18933 19.7013 8.37598C19.7013 8.56263 19.6272 8.74164 19.4952 8.87362L14.6847 13.6841L19.4952 18.4945C19.6272 18.6265 19.7013 18.8055 19.7013 18.9922C19.7013 19.1788 19.6272 19.3578 19.4952 19.4898C19.3632 19.6218 19.1842 19.6959 18.9975 19.6959C18.8109 19.6959 18.6319 19.6218 18.4999 19.4898L13.6895 14.6793L8.879 19.4898C8.74702 19.6218 8.56802 19.6959 8.38137 19.6959C8.19472 19.6959 8.01571 19.6218 7.88373 19.4898C7.75175 19.3578 7.67761 19.1788 7.67761 18.9922C7.67761 18.8055 7.75175 18.6265 7.88373 18.4945L12.6942 13.6841L7.88373 8.87362C7.75175 8.74164 7.67761 8.56263 7.67761 8.37598C7.67761 8.18933 7.75175 8.01033 7.88373 7.87835C8.01571 7.74637 8.19472 7.67222 8.38137 7.67222C8.56802 7.67222 8.74702 7.74637 8.879 7.87835L13.6895 12.6888L18.4999 7.87835C18.6319 7.74637 18.8109 7.67222 18.9975 7.67222C19.1842 7.67222 19.3632 7.74637 19.4952 7.87835Z" fill="white"/>
</svg>
